# xmcd
#
# Track frame offsets:
#	150
#	20327
#	41253
#	59883
#	75749
#	102262
#	123396
#	137771
#	155792
#	177299
#	196752
#	208618
#
# Disc length: 2999 seconds
#
# Revision: 0
# Processed by: cddbd v1.5.2PL0 Copyright (c) Steve Scherf et al.
# Submitted via: VUPlayer 2.49
#
DISCID=a40bb50c
DTITLE=Shane Dwight - A Hundred White Lies
DYEAR=2011
DGENRE=Blues
TTITLE0=Call Me
TTITLE1=A Hundred White Lies
TTITLE2=She Struts 22
TTITLE3=Love's Last Letter
TTITLE4=True Love's Gone
TTITLE5=Black Ice
TTITLE6=Love That's True
TTITLE7=Wagon Wheel
TTITLE8=Broken
TTITLE9=Talkin' To You
TTITLE10=Lose My Number
TTITLE11=Leave The Light On
EXTD=
EXTT0=
EXTT1=
EXTT2=
EXTT3=
EXTT4=
EXTT5=
EXTT6=
EXTT7=
EXTT8=
EXTT9=
EXTT10=
EXTT11=
PLAYORDER=
